<svg width="185" height="27" viewBox="0 0 185 27" fill="none" xmlns="http://www.w3.org/2000/svg">
<path d="M9.944 26.36C8 26.36 6.344 26.048 4.976 25.424C3.632 24.8 2.6 23.996 1.88 23.012C1.16 22.028 0.776 20.984 0.728 19.88C0.728 19.688 0.8 19.52 0.944 19.376C1.088 19.232 1.268 19.16 1.484 19.16H2.204C2.444 19.16 2.624 19.232 2.744 19.376C2.888 19.52 2.972 19.688 2.996 19.88C3.092 20.552 3.392 21.224 3.896 21.896C4.4 22.544 5.144 23.096 6.128 23.552C7.112 23.984 8.384 24.2 9.944 24.2C12.296 24.2 14.012 23.78 15.092 22.94C16.172 22.076 16.712 20.924 16.712 19.484C16.712 18.524 16.424 17.756 15.848 17.18C15.296 16.58 14.444 16.052 13.292 15.596C12.14 15.116 10.664 14.588 8.864 14.012C7.16 13.46 5.756 12.896 4.652 12.32C3.548 11.72 2.732 11 2.204 10.16C1.7 9.32 1.448 8.24 1.448 6.92C1.448 5.696 1.772 4.604 2.42 3.644C3.068 2.66 4.004 1.88 5.228 1.304C6.476 0.727998 7.988 0.439999 9.764 0.439999C11.18 0.439999 12.416 0.631999 13.472 1.016C14.528 1.4 15.404 1.916 16.1 2.564C16.796 3.188 17.324 3.872 17.684 4.616C18.044 5.336 18.236 6.044 18.26 6.74C18.26 6.908 18.2 7.076 18.08 7.244C17.96 7.388 17.768 7.46 17.504 7.46H16.784C16.664 7.46 16.508 7.412 16.316 7.316C16.148 7.22 16.04 7.028 15.992 6.74C15.848 5.54 15.212 4.556 14.084 3.788C12.98 2.996 11.54 2.6 9.764 2.6C7.988 2.6 6.536 2.948 5.408 3.644C4.28 4.34 3.716 5.432 3.716 6.92C3.716 7.88 3.968 8.672 4.472 9.296C4.976 9.896 5.768 10.436 6.848 10.916C7.928 11.372 9.32 11.876 11.024 12.428C12.824 13.004 14.312 13.58 15.488 14.156C16.664 14.732 17.54 15.44 18.116 16.28C18.692 17.096 18.98 18.164 18.98 19.484C18.98 20.948 18.608 22.196 17.864 23.228C17.144 24.236 16.112 25.016 14.768 25.568C13.424 26.096 11.816 26.36 9.944 26.36ZM26.7729 26C26.5329 26 26.3409 25.928 26.1969 25.784C26.0529 25.64 25.9809 25.448 25.9809 25.208V1.628C25.9809 1.364 26.0529 1.16 26.1969 1.016C26.3409 0.871999 26.5329 0.799998 26.7729 0.799998H27.5289C27.7689 0.799998 27.9489 0.859998 28.0689 0.979998C28.1889 1.1 28.2609 1.184 28.2849 1.232L41.5689 21.536V1.628C41.5689 1.364 41.6409 1.16 41.7849 1.016C41.9289 0.871999 42.1209 0.799998 42.3609 0.799998H43.0089C43.2729 0.799998 43.4769 0.871999 43.6209 1.016C43.7649 1.16 43.8369 1.364 43.8369 1.628V25.172C43.8369 25.412 43.7649 25.616 43.6209 25.784C43.4769 25.928 43.2849 26 43.0449 26H42.2529C42.0129 26 41.8329 25.94 41.7129 25.82C41.6169 25.7 41.5449 25.616 41.4969 25.568L28.2489 5.336V25.208C28.2489 25.448 28.1769 25.64 28.0329 25.784C27.8889 25.928 27.6849 26 27.4209 26H26.7729ZM50.5902 26C50.3982 26 50.2302 25.928 50.0862 25.784C49.9422 25.64 49.8702 25.472 49.8702 25.28C49.8702 25.16 49.8942 25.028 49.9422 24.884L59.0502 1.52C59.1462 1.28 59.2662 1.1 59.4102 0.979998C59.5782 0.859998 59.8062 0.799998 60.0942 0.799998H61.3182C61.6062 0.799998 61.8222 0.859998 61.9662 0.979998C62.1342 1.1 62.2662 1.28 62.3622 1.52L71.4702 24.884C71.5182 25.028 71.5423 25.16 71.5423 25.28C71.5423 25.472 71.4702 25.64 71.3262 25.784C71.1822 25.928 71.0142 26 70.8222 26H70.1022C69.8622 26 69.6822 25.94 69.5622 25.82C69.4423 25.676 69.3582 25.556 69.3102 25.46L67.0782 19.7H54.3342L52.1022 25.46C52.0782 25.556 51.9942 25.676 51.8502 25.82C51.7302 25.94 51.5502 26 51.3102 26H50.5902ZM55.1982 17.54H66.2142L60.7062 3.356L55.1982 17.54ZM78.3963 26C78.1563 26 77.9643 25.928 77.8203 25.784C77.6763 25.64 77.6043 25.448 77.6043 25.208V1.628C77.6043 1.364 77.6763 1.16 77.8203 1.016C77.9643 0.871999 78.1563 0.799998 78.3963 0.799998H87.1443C88.8243 0.799998 90.2763 1.088 91.5003 1.664C92.7483 2.216 93.7083 3.044 94.3803 4.148C95.0763 5.252 95.4243 6.62 95.4243 8.252C95.4243 9.884 95.0763 11.252 94.3803 12.356C93.7083 13.46 92.7483 14.3 91.5003 14.876C90.2763 15.428 88.8243 15.704 87.1443 15.704H79.8723V25.208C79.8723 25.448 79.8003 25.64 79.6563 25.784C79.5123 25.928 79.3083 26 79.0443 26H78.3963ZM79.8723 13.544H86.9643C89.0523 13.544 90.6003 13.088 91.6083 12.176C92.6403 11.264 93.1563 9.956 93.1563 8.252C93.1563 6.548 92.6403 5.24 91.6083 4.328C90.6003 3.416 89.0523 2.96 86.9643 2.96H79.8723V13.544ZM102.046 26C101.782 26 101.566 25.916 101.398 25.748C101.23 25.58 101.146 25.364 101.146 25.1V1.7C101.146 1.436 101.23 1.22 101.398 1.052C101.566 0.883999 101.782 0.799998 102.046 0.799998H106.582C106.846 0.799998 107.062 0.883999 107.23 1.052C107.398 1.22 107.482 1.436 107.482 1.7V9.692L114.142 1.484C114.238 1.34 114.394 1.196 114.61 1.052C114.85 0.883999 115.162 0.799998 115.546 0.799998H120.73C120.946 0.799998 121.126 0.883999 121.27 1.052C121.414 1.196 121.486 1.364 121.486 1.556C121.486 1.724 121.438 1.868 121.342 1.988L112.738 12.86L122.026 24.812C122.122 24.908 122.17 25.052 122.17 25.244C122.17 25.436 122.086 25.616 121.918 25.784C121.774 25.928 121.606 26 121.414 26H116.05C115.618 26 115.282 25.904 115.042 25.712C114.826 25.52 114.682 25.376 114.61 25.28L107.482 16.388V25.1C107.482 25.364 107.398 25.58 107.23 25.748C107.062 25.916 106.846 26 106.582 26H102.046ZM127.682 26C127.418 26 127.202 25.916 127.034 25.748C126.866 25.58 126.782 25.364 126.782 25.1V1.7C126.782 1.436 126.866 1.22 127.034 1.052C127.202 0.883999 127.418 0.799998 127.682 0.799998H132.506C132.77 0.799998 132.986 0.883999 133.154 1.052C133.322 1.22 133.406 1.436 133.406 1.7V25.1C133.406 25.364 133.322 25.58 133.154 25.748C132.986 25.916 132.77 26 132.506 26H127.682ZM146.698 26C146.434 26 146.218 25.916 146.05 25.748C145.882 25.58 145.798 25.364 145.798 25.1V6.452H139.39C139.126 6.452 138.91 6.368 138.742 6.2C138.574 6.008 138.49 5.792 138.49 5.552V1.7C138.49 1.436 138.574 1.22 138.742 1.052C138.91 0.883999 139.126 0.799998 139.39 0.799998H158.758C159.022 0.799998 159.238 0.883999 159.406 1.052C159.574 1.22 159.658 1.436 159.658 1.7V5.552C159.658 5.792 159.574 6.008 159.406 6.2C159.238 6.368 159.022 6.452 158.758 6.452H152.35V25.1C152.35 25.364 152.266 25.58 152.098 25.748C151.93 25.916 151.714 26 151.45 26H146.698ZM174.055 26.36C171.655 26.36 169.663 26.024 168.079 25.352C166.495 24.656 165.295 23.756 164.479 22.652C163.663 21.548 163.231 20.372 163.183 19.124C163.183 18.932 163.255 18.764 163.399 18.62C163.567 18.452 163.759 18.368 163.975 18.368H168.511C168.847 18.368 169.099 18.428 169.267 18.548C169.459 18.668 169.627 18.824 169.771 19.016C169.963 19.376 170.227 19.724 170.563 20.06C170.923 20.396 171.379 20.672 171.931 20.888C172.507 21.08 173.215 21.176 174.055 21.176C175.447 21.176 176.491 20.96 177.187 20.528C177.907 20.096 178.267 19.508 178.267 18.764C178.267 18.236 178.075 17.804 177.691 17.468C177.307 17.108 176.683 16.796 175.819 16.532C174.979 16.244 173.851 15.956 172.435 15.668C170.611 15.284 169.051 14.792 167.755 14.192C166.483 13.568 165.511 12.764 164.839 11.78C164.167 10.772 163.831 9.524 163.831 8.036C163.831 6.572 164.239 5.264 165.055 4.112C165.895 2.96 167.059 2.06 168.547 1.412C170.035 0.763999 171.799 0.439999 173.839 0.439999C175.495 0.439999 176.947 0.655999 178.195 1.088C179.467 1.52 180.535 2.096 181.399 2.816C182.263 3.536 182.911 4.304 183.343 5.12C183.799 5.912 184.039 6.692 184.063 7.46C184.063 7.652 183.991 7.832 183.847 8C183.703 8.144 183.523 8.216 183.307 8.216H178.555C178.291 8.216 178.063 8.168 177.871 8.072C177.679 7.976 177.511 7.82 177.367 7.604C177.223 7.076 176.839 6.62 176.215 6.236C175.615 5.828 174.823 5.624 173.839 5.624C172.783 5.624 171.955 5.816 171.355 6.2C170.779 6.56 170.491 7.124 170.491 7.892C170.491 8.372 170.647 8.792 170.959 9.152C171.295 9.512 171.835 9.824 172.579 10.088C173.347 10.352 174.391 10.628 175.711 10.916C177.895 11.324 179.659 11.84 181.003 12.464C182.347 13.064 183.331 13.856 183.955 14.84C184.579 15.8 184.891 17.012 184.891 18.476C184.891 20.108 184.423 21.524 183.487 22.724C182.575 23.9 181.303 24.8 179.671 25.424C178.039 26.048 176.167 26.36 174.055 26.36Z" fill="black"/>
</svg>
